<?xml version="1.0" standalone="no"?>
<!DOCTYPE svg PUBLIC "-//W3C//DTD SVG 20010904//EN"
 "http://www.w3.org/TR/2001/REC-SVG-20010904/DTD/svg10.dtd">
<svg version="1.0" xmlns="http://www.w3.org/2000/svg"
 width="260.000000pt" height="260.000000pt" viewBox="0 0 260.000000 260.000000"
 preserveAspectRatio="xMidYMid meet">
<metadata>
Created by potrace 1.11, written by Peter Selinger 2001-2013
</metadata>
<g transform="translate(0.000000,260.000000) scale(0.100000,-0.100000)"
fill="#000000" stroke="none">
<path d="M735 2569 c-196 -29 -397 -145 -525 -301 -61 -74 -141 -235 -167
-333 -16 -64 -18 -119 -18 -635 0 -634 -1 -622 75 -787 90 -194 218 -323 412
-412 166 -77 154 -76 788 -76 634 0 622 -1 788 76 194 89 322 218 412 412 76
165 75 153 75 787 0 634 1 622 -75 787 -90 194 -219 323 -412 412 -163 76
-149 75 -753 77 -297 1 -567 -2 -600 -7z m923 -185 c213 -99 353 -248 411
-438 48 -157 9 -336 -99 -459 -90 -102 -213 -128 -425 -92 l-40 7 -19 -51 -18
-51 -37 21 c-120 72 -133 82 -128 103 13 58 40 151 53 181 l14 34 67 -26 c120
-45 165 -55 225 -51 74 5 122 41 163 123 27 53 30 70 30 150 0 78 -4 98 -27
146 -50 102 -174 203 -310 254 -27 10 -48 21 -48 25 0 5 14 46 31 93 25 68 34
84 48 80 9 -4 58 -26 109 -49z m-880 -406 c11 -29 85 -224 165 -433 79 -209
155 -411 167 -450 13 -38 26 -73 29 -77 4 -4 28 53 55 126 l48 133 82 -34 c44
-19 87 -37 94 -40 6 -3 12 -6 12 -8 0 -17 -181 -459 -216 -526 -154 -297 -346
-426 -623 -417 l-86 3 -3 95 -3 96 108 -1 c99 0 113 2 165 28 73 36 155 125
205 223 l37 73 -239 598 c-131 329 -245 613 -252 631 l-13 32 124 0 125 0 19
-52z"/>
</g>
</svg>
